<svg xmlns="http://www.w3.org/2000/svg" width="512" height="512" viewBox="0 0 512 512" role="img" aria-label="GrowthHaven">
  <rect width="512" height="512" fill="#863bff"/>
  <g transform="translate(116 116) scale(1.75)" fill="#ffffff">
    <path d="M68 20 21 47c-6 4-5 2-5 38l1 33 31 20c6 2 6 2 20-6l13-7 14 7c11 7 12 8 15 7l14-7c14-8 14-8 14-25 0-15-1-18-5-20h-3l-8-5-4-3h1l-4-2c-6-3-6-4-6-20 0-14 0-16-3-19h-1v1l-11-8 2 1-23-12zm-4 4-15 9-28 16 35-21zm16 27 1 15c0 15 0 18 4 19q1 3 12-4c11-7 12-7 12 9s0 16-7 21l-6 3-2 2-10 5c-3 0-3-2-3-17q0-6-2-7c-3-3-5-3-17 4s-13 8-14 7l-2-1c-2 0-2-2-2-21l1-18 2-1 3-2 21-13q6-3 9-1M70 99l-7 5-9 5-2 1zm34 14-14 8zM122 81l9 5z"/>
  </g>
</svg>
